<svg class="icon" viewBox="0 0 1024 1024" xmlns="http://www.w3.org/2000/svg" width="128" height="128"><defs><style/></defs><path d="M769.849 881.55H242.716C114.631 887.182 6.06 790.756.284 666.084c-5.83-124.644 93.298-230.287 221.384-235.947-.342-151.467 120.234-277.191 275.54-287.289 155.308-10.07 291.983 98.93 312.32 249.116 130.902 19.627 224.115 134.201 213.704 262.685-10.41 128.512-120.889 227.47-253.355 226.901zm-496.356-82.09H769.85c60.274 0 115.968-31.29 146.09-82.063a160.341 160.341 0 0 0 0-164.153c-30.15-50.801-85.816-82.09-146.09-82.062-11.179 0-21.902-4.323-29.81-12.032a40.476 40.476 0 0 1-12.373-29.013c0-113.323-94.379-205.198-210.83-205.198-116.452 0-210.86 91.875-210.86 205.198v8.619c99.699 27.648 168.506 116.195 168.676 217.088 0 14.648-8.02 28.216-21.077 35.555a43.179 43.179 0 0 1-42.183 0 40.846 40.846 0 0 1-21.049-35.555c0-79.161-65.849-143.417-147.2-143.645-81.522 0-147.598 64.313-147.598 143.645 0 79.303 66.076 143.644 147.598 143.644h16.441a42.445 42.445 0 0 1 13.938 0z"/></svg>