<svg class="icon" viewBox="0 0 1024 1024" xmlns="http://www.w3.org/2000/svg" width="128" height="128"><defs><style/></defs><path d="M808 880c13.254 0 24 10.746 24 24s-10.746 24-24 24H216c-13.254 0-24-10.746-24-24s10.746-24 24-24h592zM512 96c247.424 0 448 200.576 448 448 0 71.549-16.806 140.74-48.597 203.131-6.017 11.811-20.47 16.506-32.28 10.488-11.811-6.016-16.505-20.47-10.488-32.28C893.44 676.66 908.02 623.355 911.291 568H832c-13.254 0-24-10.746-24-24s10.746-24 24-24l79.291-.003c-5.491-92.79-42.614-177.072-100.737-242.208l-54.223 54.22c-9.373 9.373-24.568 9.373-33.94 0-9.373-9.372-9.373-24.567 0-33.94l54.126-54.128c-64.903-57.258-148.527-93.789-240.514-99.232L536 224c0 13.254-10.746 24-24 24s-24-10.746-24-24l-.002-79.291c-92.388 5.467-176.342 42.293-241.363 99.984l56.106 56.107c9.373 9.373 9.373 24.568 0 33.94-9.373 9.374-24.568 9.374-33.941 0l-56.107-56.106c-57.69 65.022-94.517 148.976-99.984 241.363L192 520c13.254 0 24 10.746 24 24s-10.746 24-24 24h-79.293c3.251 54.955 17.643 107.888 42.123 156.288 5.984 11.827 1.245 26.266-10.582 32.248-11.829 5.984-26.267 1.245-32.25-10.582C80.592 683.864 64 615.094 64 544 64 296.576 264.576 96 512 96zm152.374 295.626c9.373 9.372 9.373 24.568 0 33.94l-67.881 67.884a24.352 24.352 0 0 1-1.226 1.142C603.368 508.669 608 524.994 608 542.4c0 53.02-42.98 96-96 96s-96-42.98-96-96 42.98-96 96-96c18.23 0 35.272 5.082 49.79 13.904.245-.269.5-.534.76-.797l67.884-67.881c9.372-9.373 24.568-9.373 33.94 0zM512 494.4c-26.51 0-48 21.49-48 48s21.49 48 48 48 48-21.49 48-48-21.49-48-48-48z"/></svg>