<svg class="icon" viewBox="0 0 1024 1024" xmlns="http://www.w3.org/2000/svg" width="200" height="200"><defs><style/></defs><path d="M911.716 422.962c-23.646-24.138-53.482-40.253-85.996-46.814-5.248-58.428-30.548-112.667-72.556-154.65-47.437-47.406-110.5-73.514-177.57-73.514-92.867 0-176.883 51.066-220.363 130.574-17.163-9.299-36.56-14.308-56.677-14.308-64.687 0-117.485 51.872-118.98 116.208-28.116 9.204-53.5 25.845-73.331 48.407-26.717 30.394-41.43 69.44-41.43 109.945 0 91.864 74.799 166.602 166.739 166.602H793.11c43.846 0 85.348-17.243 116.863-48.55 31.737-31.53 49.215-73.322 49.215-117.679 0-43.7-16.86-84.973-47.472-116.22zM866.7 613.302c-19.934 19.803-46.069 30.71-73.59 30.71H231.552c-58.086 0-105.342-47.194-105.342-105.204 0-52.316 38.999-97.113 90.712-104.203a30.7 30.7 0 0 0 25.66-37.668 57.932 57.932 0 0 1-1.643-13.672c0-31.77 25.846-57.617 57.614-57.617 17.407 0 33.703 7.75 44.71 21.263a30.698 30.698 0 0 0 52.84-9.423c26.295-76.625 98.427-128.106 179.49-128.106 104.628 0 189.751 85.075 189.751 189.648 0 .933.02 1.844.044 2.75.01.386.029.77.023 1.16-.351 16.876 12.99 30.87 29.866 31.325 27.527.74 53.303 11.986 72.58 31.663 19.302 19.702 29.933 45.717 29.933 73.251 0 27.882-11.04 54.205-31.09 74.122zM634.584 746.204l-77.406 77.405c-11.99 11.988-11.99 31.426 0 43.415 5.994 5.994 13.85 8.992 21.707 8.992a30.612 30.612 0 0 0 21.708-8.992l77.406-77.405c11.989-11.988 11.989-31.426 0-43.415-11.99-11.988-31.426-11.99-43.415 0zm-91.013-14.209c-11.988-11.988-31.427-11.99-43.415 0l-91.613 91.613c-11.988 11.989-11.99 31.426 0 43.415 5.995 5.994 13.85 8.992 21.707 8.992 7.856 0 15.714-2.999 21.708-8.992l91.612-91.613c11.99-11.988 11.99-31.425.001-43.415zm-148.634 14.209c-11.99-11.988-31.427-11.99-43.415 0l-77.405 77.405c-11.989 11.988-11.989 31.426 0 43.415 5.996 5.994 13.85 8.992 21.708 8.992 7.855 0 15.713-2.999 21.707-8.992l77.405-77.405c11.989-11.988 11.989-31.426 0-43.415z"/></svg>