<svg class="icon" viewBox="0 0 1024 1024" xmlns="http://www.w3.org/2000/svg" width="128" height="128"><defs><style/></defs><path d="M646.4 202.667c-25.6-19.2-55.467-23.467-85.333-12.8L309.333 315.733c-19.2 6.4-34.133 19.2-44.8 34.134-12.8-4.267-27.733-8.534-49.066-8.534h-27.734c-49.066 0-87.466 40.534-87.466 91.734v217.6c0 51.2 38.4 91.733 87.466 91.733h27.734c21.333 0 36.266-2.133 49.066-8.533 10.667 14.933 25.6 25.6 42.667 32l247.467 115.2h2.133c10.667 4.266 23.467 6.4 34.133 6.4 19.2 0 38.4-6.4 53.334-17.067 29.866-21.333 46.933-55.467 46.933-96V296.533c2.133-38.4-14.933-74.666-44.8-93.866zm-405.333 467.2v4.266c-2.134 0-8.534 2.134-23.467 2.134h-29.867c-12.8 0-23.466-12.8-23.466-27.734v-217.6c0-14.933 10.666-27.733 23.466-27.733h27.734c17.066 0 23.466 2.133 23.466 2.133V659.2c2.134 4.267 2.134 6.4 2.134 10.667zm388.266 106.666c0 17.067-8.533 34.134-19.2 42.667-6.4 4.267-14.933 8.533-27.733 4.267L334.933 706.133H332.8c-17.067-6.4-27.733-25.6-27.733-46.933V420.267c0-21.334 12.8-40.534 27.733-46.934l251.733-125.866c10.667-2.134 19.2 2.133 25.6 4.266 12.8 8.534 19.2 23.467 19.2 42.667v482.133zm147.2-401.066c6.4 4.266 12.8 6.4 19.2 6.4 10.667 0 19.2-4.267 25.6-12.8L902.4 258.133c10.667-14.933 6.4-34.133-6.4-44.8-14.933-10.666-34.133-6.4-44.8 6.4L768 330.667c-8.533 14.933-6.4 34.133 8.533 44.8zm44.8 358.4c-10.666-14.934-29.866-17.067-44.8-6.4-14.933 10.666-17.066 29.866-6.4 44.8L851.2 883.2c6.4 8.533 14.933 12.8 25.6 12.8 6.4 0 12.8-2.133 19.2-6.4 14.933-10.667 17.067-29.867 6.4-44.8l-81.067-110.933zm70.4-219.734h-102.4c-17.066 0-32 14.934-32 32s14.934 32 32 32h102.4c17.067 0 32-14.933 32-32s-12.8-32-32-32z"/></svg>