<svg class="icon" viewBox="0 0 1024 1024" xmlns="http://www.w3.org/2000/svg" width="128" height="128"><defs><style/></defs><path d="M351.962 128.277l128.1-.154.077 64-128.1.154zm-96.158-63.938l64-.077.192 159.9-64 .077zm256.2-.301l64-.076.192 159.9-64 .076z"/><path d="M160.9 896c-17.7 0-32-14.3-32-31.9l-.8-639.6c0-17.7 14.3-32 32-32l64.1-.1-.1-64-64.1.1c-53.1.1-96 43.1-96 96.1l.8 639.6c.1 53 43.1 95.9 96.2 95.8l511.7-.6-.1-64-511.7.6z"/><path d="M513.1 702.7l-287.8.3c-17.7 0-32 14.3-32 32s14.3 32 32 31.9l287.8-.3c17.7 0 32-14.3 32-32 0-17.6-14.3-31.9-32-31.9zm-288-191.5c-17.7 0-32 14.3-32 32s14.3 32 32 31.9l383.8-.5c17.7 0 32-14.3 32-32s-14.3-32-32-31.9l-383.8.5zm-.2-191.9c-17.7 0-32 14.3-32 32s14.3 32 32 31.9l383.8-.5c17.7 0 32-14.3 32-32s-14.3-32-32-31.9l-383.8.5zm543.2-95.6c-.1-53-43.1-95.9-96.1-95.8l-64 .1.1 64 64-.1c17.7 0 32 14.3 32 31.9l.4 352.2h64l-.4-352.3zm182.5 566.9L816.1 925c-12.5 12.5-32.8 12.5-45.3 0s-12.5-32.7 0-45.2l79.8-79.7L608 800c-12.9 0-24.6-7.8-29.6-19.8s-2.2-25.7 6.9-34.9L700 630.7c12.5-12.5 32.8-12.5 45.3 0s12.5 32.8 0 45.3l-60 60H928c12.9 0 24.6 7.8 29.6 19.8 4.9 11.9 2.2 25.7-7 34.8z"/></svg>