<svg class="icon" viewBox="0 0 1024 1024" xmlns="http://www.w3.org/2000/svg" width="200" height="200"><defs><style/></defs><path d="M444.416 117.76c-32.256 0-60.928 16.896-80.896 44.032-1.536 2.048-2.56 3.584-4.096 5.632-26.112-12.8-74.24-41.472-100.864-41.472-28.672 0-54.272 16.384-71.68 43.008-15.36 23.552-25.088 55.296-25.088 89.6 0 34.816 9.728 66.56 25.088 89.6 17.408 26.624 43.008 43.008 71.68 43.008s87.552-14.336 118.784-19.968c18.432 17.92 41.472 28.16 67.072 28.16 5.12 0 9.728-.512 14.848-1.024l89.6 99.328 74.752 12.8-8.192 139.776-11.264 286.72h70.144l15.36-244.736h31.744l12.288 244.736h75.264l-16.384-287.232 12.288-252.416H665.088l-26.112-41.472 9.216-2.048c14.848 13.824 34.304 22.528 56.32 22.528 45.056 0 81.92-36.864 81.92-81.92s-36.864-81.92-81.92-81.92c-23.552 0-44.544 9.728-59.392 25.6L493.056 132.096c-14.848-9.216-31.232-14.336-48.64-14.336zm160.768 292.352l-46.08 19.456-47.616-46.592 73.728-15.36 19.968 42.496zm-375.296-212.48c8.192-12.288 17.92-19.456 28.16-19.456s20.48 7.68 28.16 19.456c10.24 15.36 16.384 36.864 16.384 60.928s-5.632 46.08-15.872 60.928c-8.192 11.776-17.92 19.456-28.16 19.456s-20.48-7.68-28.16-19.456c-10.24-15.36-16.384-36.864-16.384-60.928s5.632-45.568 15.872-60.928zm175.104-4.608c10.752-14.336 24.576-23.04 39.424-23.04 14.848 0 28.672 8.704 39.424 23.04 12.288 16.384 19.968 39.424 19.968 65.536 0 26.112-7.68 49.152-19.968 65.536-10.752 14.336-24.576 23.04-39.424 23.04-14.848 0-28.672-8.704-39.424-23.04-12.288-16.384-19.968-39.424-19.968-65.536 0-26.112 7.68-49.152 19.968-65.536z"/></svg>